<?xml version="1.0" encoding="utf-8"?>
<!-- Generator: Adobe Illustrator 18.0.0, SVG Export Plug-In . SVG Version: 6.00 Build 0)  -->
<!DOCTYPE svg PUBLIC "-//W3C//DTD SVG 1.0//EN" "http://www.w3.org/TR/2001/REC-SVG-20010904/DTD/svg10.dtd">
<svg version="1.0" xmlns="http://www.w3.org/2000/svg" xmlns:xlink="http://www.w3.org/1999/xlink" x="0px" y="0px"
	 viewBox="0 0 512 512" enable-background="new 0 0 512 512" xml:space="preserve">
<g id="youtube" display="none">
	<path display="inline" d="M99.26,0.5h30.735l21.041,78.974L170.591,0.5h31.003l-35.513,117.441v80.138h-30.516v-80.138L99.26,0.5z
		 M200.213,161.727c0,25.685,13.42,39.058,39.7,39.058c21.794,0,38.955-14.576,38.955-39.058V90.286
		c0-22.812-16.992-39.158-38.955-39.158c-23.864,0-39.7,15.771-39.7,39.158V161.727z M228.096,92.689
		c0-7.974,3.673-13.898,11.285-13.898c8.311,0,11.866,5.745,11.866,13.898v67.798c0,7.937-4.045,13.798-11.336,13.798
		c-7.482,0-11.815-6.125-11.815-13.798V92.689z M352.115,52.327v110.631c-3.303,4.138-10.649,10.921-15.933,10.921
		c-5.798,0-7.218-3.963-7.218-9.824V52.327h-27.097v121.823c0,14.399,4.404,26.034,18.928,26.034
		c8.199,0,19.578-4.266,31.318-18.196v16.09h27.095V52.327H352.115z M312.256,351.112c1.839,2.428,2.759,5.985,2.759,10.664v71.668
		c0,4.429-0.748,7.62-2.233,9.568c-2.846,3.724-9.004,3.555-13.203,1.43c-1.975-0.997-4.012-2.623-6.109-4.88V353.06
		c1.751-1.904,3.523-3.317,5.321-4.224C303.307,346.545,309.136,346.986,312.256,351.112z M399.126,347.967
		c-9.562,0-11.527,6.73-11.527,16.27v14.05h22.796v-14.05C410.395,354.856,408.406,347.967,399.126,347.967z M477.824,450.36
		c0,34.317-27.816,62.14-62.13,62.14H96.305c-34.313,0-62.13-27.822-62.13-62.14V293.388c0-34.321,27.816-62.138,62.13-62.138
		h319.389c34.311,0,62.13,27.816,62.13,62.138V450.36L477.824,450.36z M138.865,305.126h30.065v-27.314H79.738v27.314h30.063
		v160.852h29.063V305.126L138.865,305.126z M242.237,327.174h-25.806v105.361c-3.149,3.947-10.145,10.399-15.174,10.399
		c-5.518,0-6.871-3.77-6.871-9.355V327.174h-25.807v116.019c0,28.163,19.096,28.336,33.006,20.364
		c5.144-2.952,10.089-7.253,14.848-12.898v15.318h25.806V327.174z M341.573,360.215c0-18.83-6.259-34.794-25.16-34.794
		c-9.213,0-17.122,5.875-22.944,12.969v-60.578h-26.058v188.166h26.058v-10.664c7.194,8.969,15.062,12.419,24.51,12.419
		c17.171,0,23.594-13.337,23.594-30.514V360.215z M436.953,364.491c0-25.087-11.962-40.824-36.718-40.824
		c-23.281,0-39.196,16.728-39.196,40.824v62.305c0,24.986,12.602,42.942,37.242,42.942c27.192,0,38.672-16.193,38.672-42.942
		v-10.424h-26.558v9.646c0,12.084-0.634,19.419-11.527,19.419c-10.391,0-11.269-9.006-11.269-19.419v-26.186h49.356v-35.341H436.953
		z"/>
</g>
<g id="twitter" display="none">
	<path display="inline" d="M459.588,150.853c6.642,148.774-103.544,314.65-298.567,314.65c-59.323,0-114.536-17.513-161.021-47.522
		c55.727,6.615,111.35-8.954,155.516-43.81c-45.967-0.849-84.762-31.431-98.126-73.453c16.46,3.166,32.652,2.236,47.435-1.814
		c-50.513-10.224-85.389-56.048-84.248-105.054c14.157,7.925,30.356,12.681,47.578,13.234
		C21.369,175.602,8.128,113.391,35.644,65.861c51.81,63.994,129.213,106.108,216.509,110.518
		C236.832,110.215,286.679,46.497,354.48,46.497c30.213,0,57.511,12.841,76.671,33.404c23.93-4.741,46.408-13.549,66.704-25.673
		c-7.843,24.708-24.499,45.433-46.184,58.528c21.246-2.555,41.491-8.244,60.329-16.66
		C497.923,117.313,480.116,135.94,459.588,150.853z"/>
</g>
<g id="suitcase" display="none">
	<path display="inline" fill-rule="evenodd" clip-rule="evenodd" d="M474.075,492.414h-75.854V95.241h75.854
		c20.944,0,37.925,16.933,37.925,37.823v321.522C512,475.478,495.019,492.414,474.075,492.414z M151.698,95.238L151.698,95.238
		V57.412c0-20.892,16.98-37.826,37.927-37.826h132.741c20.946,0,37.926,16.934,37.926,37.826v37.826v397.173H151.698V95.238z
		 M189.625,95.238h132.741c0,0,0-8.47,0-18.912c0-10.448-8.492-18.914-18.962-18.914h-94.815c-10.474,0-18.964,8.466-18.964,18.914
		C189.625,86.768,189.625,95.238,189.625,95.238z M0,454.585V133.063c0-20.89,16.98-37.823,37.925-37.823h75.853v397.174H37.925
		C16.98,492.414,0,475.478,0,454.585z"/>
</g>
<g id="snow" display="none">
	<path display="inline" d="M475.143,373.072l-34.115-19.661l34.046-9.114c4.28-1.138,6.81-5.535,5.664-9.802
		c-1.139-4.262-5.538-6.781-9.812-5.65l-49.523,13.249l-16.707-9.626l34.052-9.113c4.274-1.143,6.81-5.535,5.664-9.802
		c-1.145-4.261-5.538-6.786-9.812-5.654l-49.528,13.255l-16.952-9.779l34.046-9.107c4.28-1.144,6.81-5.536,5.67-9.808
		c-1.145-4.255-5.539-6.787-9.818-5.65l-49.522,13.255l-29.779-17.163c0.296-1.399,0.507-2.798,0.507-4.17v-45.489
		c0-1.365-0.211-2.764-0.502-4.158l29.773-17.157l49.517,13.249c0.701,0.188,1.396,0.272,2.08,0.272c3.539,0,6.775-2.36,7.738-5.933
		c1.14-4.267-1.396-8.654-5.67-9.797l-34.047-9.107l16.952-9.767l49.523,13.249c0.695,0.188,1.396,0.273,2.08,0.273
		c3.539,0,6.775-2.361,7.733-5.928c1.145-4.266-1.391-8.652-5.664-9.801l-34.052-9.109l16.707-9.625l49.522,13.255
		c0.696,0.182,1.391,0.272,2.074,0.272c3.539,0,6.776-2.36,7.733-5.928c1.145-4.266-1.385-8.653-5.664-9.802l-34.047-9.107
		l34.115-19.667c3.829-2.207,5.141-7.104,2.929-10.929c-2.211-3.828-7.111-5.141-10.941-2.929l-34.115,19.66l9.128-33.991
		c1.139-4.266-1.396-8.654-5.67-9.802c-4.285-1.132-8.667,1.395-9.813,5.661l-13.271,49.448l-16.701,9.625l9.123-33.991
		c1.14-4.266-1.391-8.653-5.67-9.801c-4.279-1.133-8.667,1.388-9.818,5.66l-13.265,49.447l-16.952,9.768l9.128-33.997
		c1.139-4.267-1.396-8.653-5.669-9.803c-4.28-1.143-8.667,1.395-9.818,5.662l-13.266,49.448l-29.755,17.173
		c-1.072-0.955-2.177-1.831-3.362-2.52l-39.465-22.743c-1.168-0.672-2.49-1.183-3.863-1.616v-34.355l36.257-36.198
		c3.134-3.123,3.134-8.187,0-11.309c-3.128-3.123-8.205-3.123-11.328,0l-24.929,24.883v-19.548l36.257-36.199
		c3.134-3.122,3.134-8.186,0-11.308c-3.128-3.125-8.205-3.125-11.328,0l-24.929,24.882V69.95l36.257-36.198
		c3.134-3.124,3.134-8.187,0-11.311c-3.128-3.123-8.205-3.123-11.328,0l-24.929,24.884V7.998c0-4.415-3.59-7.998-8.012-7.998
		c-4.422,0-8.011,3.583-8.011,7.998v39.333l-24.929-24.884c-3.123-3.123-8.2-3.123-11.323,0c-3.134,3.123-3.134,8.187,0,11.31
		l36.252,36.198v19.257l-24.929-24.884c-3.123-3.122-8.2-3.122-11.323,0c-3.134,3.124-3.134,8.187,0,11.31l36.252,36.2v19.546
		l-24.929-24.883c-3.123-3.123-8.2-3.123-11.323,0c-3.134,3.124-3.134,8.186,0,11.31l36.252,36.198v34.355
		c-1.373,0.438-2.695,0.945-3.863,1.615l-39.46,22.744c-1.185,0.689-2.296,1.565-3.361,2.521l-29.773-17.164l-13.265-49.447
		c-1.146-4.266-5.539-6.792-9.824-5.659c-4.273,1.143-6.809,5.528-5.664,9.796l9.123,33.996l-16.952-9.767l-13.265-49.448
		c-1.152-4.267-5.54-6.794-9.818-5.66c-4.274,1.143-6.809,5.535-5.67,9.802l9.128,33.992l-16.7-9.626l-13.271-49.448
		c-1.146-4.267-5.534-6.793-9.819-5.659c-4.273,1.148-6.808,5.535-5.669,9.801l9.128,33.997L44.892,125.08
		c-3.835-2.219-8.735-0.899-10.946,2.93c-2.217,3.822-0.9,8.721,2.935,10.928l34.108,19.666l-34.046,9.108
		c-4.28,1.144-6.808,5.53-5.669,9.798c0.963,3.572,4.2,5.927,7.732,5.927c0.689,0,1.385-0.085,2.08-0.273l49.528-13.249
		l16.701,9.626l-34.052,9.107c-4.274,1.144-6.809,5.529-5.669,9.802c0.963,3.573,4.199,5.928,7.737,5.928
		c0.684,0,1.385-0.091,2.074-0.272l49.534-13.251l16.947,9.769l-34.047,9.108c-4.274,1.144-6.809,5.536-5.664,9.798
		c0.957,3.572,4.188,5.932,7.733,5.932c0.684,0,1.379-0.09,2.074-0.272l49.529-13.25l29.773,17.158
		c-0.296,1.4-0.507,2.799-0.507,4.165v45.487c0,1.372,0.211,2.771,0.507,4.166l-29.779,17.163l-49.523-13.25
		c-4.273-1.143-8.667,1.389-9.812,5.65c-1.145,4.273,1.39,8.659,5.664,9.807l34.046,9.107l-16.952,9.774l-49.528-13.243
		c-4.274-1.138-8.667,1.387-9.819,5.654c-1.139,4.267,1.396,8.652,5.67,9.797l34.046,9.113l-16.701,9.626l-49.517-13.25
		c-4.28-1.132-8.667,1.389-9.818,5.649c-1.145,4.267,1.385,8.659,5.665,9.802l34.046,9.114l-34.109,19.66
		c-3.835,2.213-5.145,7.105-2.934,10.934c1.481,2.561,4.176,3.994,6.951,3.994c1.351,0,2.729-0.342,3.994-1.07l34.11-19.66
		l-9.13,33.997c-1.139,4.266,1.391,8.653,5.67,9.802c0.695,0.181,1.39,0.272,2.074,0.272c3.539,0,6.775-2.36,7.739-5.927
		l13.271-49.454l16.701-9.621l-9.129,33.992c-1.14,4.273,1.391,8.659,5.67,9.802c0.689,0.182,1.39,0.28,2.079,0.28
		c3.533,0,6.769-2.361,7.733-5.934l13.271-49.449l16.946-9.772l-9.128,33.996c-1.14,4.273,1.395,8.652,5.669,9.801
		c0.701,0.183,1.391,0.28,2.08,0.28c3.533,0,6.77-2.361,7.732-5.934l13.277-49.447l29.767-17.164
		c1.066,0.962,2.177,1.832,3.363,2.509l39.459,22.756c1.175,0.671,2.49,1.199,3.863,1.643v34.321l-36.251,36.194
		c-3.134,3.129-3.134,8.185,0,11.309c1.556,1.564,3.613,2.344,5.658,2.344c2.052,0,4.109-0.78,5.664-2.344l24.929-24.883v19.546
		l-36.251,36.2c-3.134,3.122-3.134,8.18,0,11.309c1.556,1.559,3.613,2.344,5.658,2.344c2.052,0,4.109-0.785,5.664-2.344
		l24.929-24.883v19.257l-36.251,36.192c-3.134,3.129-3.134,8.187,0,11.309c1.556,1.565,3.613,2.344,5.658,2.344
		c2.052,0,4.109-0.779,5.664-2.344l24.929-24.883v39.329c0.035,4.39,3.624,7.969,8.046,7.969c4.422,0,8.012-3.579,8.012-7.999
		v-39.327l24.929,24.883c1.556,1.564,3.612,2.343,5.664,2.343c2.046,0,4.102-0.779,5.664-2.343c3.134-3.124,3.134-8.186,0-11.309
		l-36.257-36.193v-19.256l24.929,24.883c1.556,1.559,3.612,2.344,5.664,2.344c2.046,0,4.102-0.785,5.664-2.344
		c3.134-3.129,3.134-8.193,0-11.309l-36.257-36.199v-19.547l24.929,24.883c1.556,1.565,3.612,2.344,5.664,2.344
		c2.046,0,4.102-0.778,5.664-2.344c3.134-3.124,3.134-8.186,0-11.309l-36.257-36.193v-34.321c1.373-0.444,2.689-0.973,3.863-1.643
		l39.46-22.756c1.191-0.678,2.296-1.548,3.362-2.51l29.773,17.165l13.271,49.446c0.963,3.573,4.199,5.935,7.732,5.935
		c0.689,0,1.385-0.098,2.079-0.28c4.274-1.144,6.81-5.529,5.67-9.801l-9.128-33.998l16.946,9.775l13.271,49.447
		c0.963,3.572,4.199,5.933,7.732,5.933c0.69,0,1.39-0.097,2.079-0.279c4.28-1.137,6.809-5.528,5.67-9.801l-9.128-33.992l16.707,9.62
		l13.271,49.453c0.957,3.567,4.193,5.928,7.732,5.928c0.684,0,1.379-0.091,2.074-0.272c4.274-1.143,6.809-5.535,5.67-9.802
		l-9.128-33.996l34.115,19.66c1.259,0.733,2.638,1.069,3.994,1.069c2.77,0,5.459-1.433,6.946-3.993
		C480.282,380.177,478.972,375.285,475.143,373.072z M301.178,274.568c0,4.085-2.895,9.097-6.439,11.138l-32.291,18.609
		c-3.539,2.043-9.334,2.043-12.872,0l-32.286-18.609c-3.55-2.041-6.445-7.053-6.445-11.138V237.34c0-4.079,2.895-9.092,6.445-11.138
		l32.286-18.609c3.539-2.043,9.333-2.043,12.872,0l32.291,18.609c3.544,2.047,6.439,7.053,6.439,11.138V274.568z"/>
</g>
<g id="ski" display="none">
	<g display="inline">
		<g>
			<path d="M461.741,157.402c25.405,0,46.033-20.451,46.033-45.56c0-25.109-20.628-45.56-46.033-45.56
				c-25.415,0-46.11,20.451-46.11,45.56C415.63,136.951,436.325,157.402,461.741,157.402z M311.501,349.155
				c0,0,6.809-4.786,16.895-2.651l0.395,0.066l74.531,16.57c0,0,5.365-0.582,14.602,15.4c0,0,1.116,6.922,10.286,3.754
				c0,0,1.572,0,4.843,2.07c0,0,17.29,6.926,18.868-2.07l59.99-201.725c0,0,1.833-22.201-11.136-22.201
				c-11.069,9.841-25.676,15.857-41.783,15.857c-34.452,0-62.279-27.509-62.279-61.418c0-11.904,3.471-23.102,9.364-32.487
				c0,0-0.528-1.684-4.327-7.508c0,0-10.87-12.36-7.593-18.705c0,0,2.749-12.749-8.643-8.54L272.667,71.781
				c0,0-16.047,4.077-15.949,15.466c0,0-1.603,11.071,11.755,17.02l41.983,15.528c0,0,12.964,4.726,4.844,10.099l-68.535,51.778
				c0,0-14.607,9.062-13.527,25.626c0,0-6.866,70.322-11.131,100.557l-56.565-12.811l2.437-10.417
				c0.952-4.203-1.377-8.343-5.238-9.253c-3.896-0.905-7.828,1.812-8.812,6.016l-2.447,10.463l-22.472-5.09l-8.351,5.05l5.401,8.541
				l22.246,5.079l-2.534,10.842c-0.952,4.27,1.377,8.409,5.237,9.248c3.896,0.846,7.829-1.745,8.812-6.015l2.539-10.862
				l56.832,12.972c-0.953,1.261-3.026,3.901-5.376,6.179l-95.579,90.74L2.129,408.369L0,428.624l431.41,38.511
				c0,0,39.362,3.689,72.892-25.625l-2.094-27.766c0,0-31.959,37.925-68.632,33.139c-36.675-4.852-247.846-21.944-247.846-21.944
				l56.683-37.338c0,0,0.558,0.521,4.358-6.992l119.35-296.66l14.607,5.5l-114.645,286.05L311.501,349.155z M326.175,325.208
				l24.227-83.87c1.639-9.583,13.497-11.653,13.497-11.653l71.838-14.495c12.908-3.364,10.286,6.471,10.286,6.471l-12.446,125.933
				c-0.922,7.768-5.371,6.346-5.371,6.346l-94.504-20.708C322.832,331.294,326.175,325.208,326.175,325.208z"/>
		</g>
	</g>
</g>
<g id="share" display="none">
	<path display="inline" d="M137.792,375.398C197.888,112.17,333.514,91.822,333.514,91.822V10.786L512,190.016L333.514,369.249
		V288.21C333.514,288.214,265.739,237.608,137.792,375.398z M465.385,326.626v135.229H39.126V165.169h122.528
		c18.864-24.435,19.825-18.702,43.468-39.36H0v375.405h504.51V279.546L465.385,326.626z"/>
</g>
<g id="search" display="none">
	<path display="inline" d="M0,461.778l133.429-132.363c-25.106-34.239-39.941-76.344-39.941-121.831
		C93.487,93.123,187.36,0,302.744,0C418.126,0,512,93.123,512,207.585c0,114.464-93.874,207.584-209.256,207.584
		c-43.732,0-84.373-13.383-117.984-36.233L50.624,511.998L0,461.778z M450.633,207.585c0-80.893-66.342-146.707-147.889-146.707
		c-81.551,0-147.891,65.814-147.891,146.707c0,80.895,66.34,146.711,147.891,146.711C384.29,354.296,450.633,288.48,450.633,207.585
		z"/>
</g>
<g id="rss" display="none">
	<path display="inline" d="M70.9,512c-38.001,0-68.803-31.014-68.803-69.287c0-38.261,30.804-69.275,68.803-69.275
		c37.995,0,68.797,31.014,68.797,69.275C139.697,480.986,108.897,512,70.9,512z M235.317,512
		C234,383.081,130.119,278.472,2.098,277.146V174.509C186.614,175.837,335.923,326.192,337.243,512H235.317z M407.972,512
		c-0.309-109.22-42.675-211.857-119.404-289.121C211.992,145.766,110.319,103.122,2.096,102.653V0
		c280.232,0.988,507.172,229.725,507.808,512H407.972z"/>
</g>
<g id="pinterest" display="none">
	<path display="inline" d="M295.224,370.029c-31.536,0-61.192-17.167-71.337-36.658c0,0-16.965,67.756-20.546,80.839
		c-12.643,46.207-49.844,92.451-52.727,96.238c-2.018,2.635-6.469,1.809-6.936-1.68c-0.805-5.885-10.286-64.198,0.875-111.76
		c5.602-23.884,37.562-160.254,37.562-160.254s-9.315-18.776-9.315-46.533c0-43.584,25.089-76.118,56.322-76.118
		c26.556,0,39.39,20.075,39.39,44.146c0,26.894-17.005,67.098-25.788,104.357c-7.326,31.21,15.542,56.649,46.097,56.649
		c55.32,0,92.591-71.567,92.591-156.367c0-64.44-43.089-112.697-121.514-112.697c-88.572,0-143.79,66.53-143.79,140.855
		c0,25.614,7.516,43.699,19.278,57.674c5.397,6.426,6.153,9.014,4.199,16.389c-1.426,5.416-4.619,18.44-5.969,23.604
		c-1.938,7.453-7.932,10.112-14.618,7.354c-40.789-16.768-59.805-61.772-59.805-112.354C59.196,100.177,129.159,0,267.914,0
		c111.514,0,184.89,81.239,184.89,168.477C452.798,283.842,389.108,370.029,295.224,370.029z"/>
</g>
<g id="partly-cloudy" display="none">
	<path display="inline" d="M451.671,267.043c-26.302-52.691-80.033-86.22-139.506-86.22c-3.407,0-6.789,0.147-10.157,0.363
		c-16.71-36.378-53.364-61.687-96.018-61.687c-58.395,0-105.727,47.333-105.727,105.728c0,10.882,1.717,21.338,4.799,31.197
		c-29.997,23.428-49.338,59.897-49.338,100.825c0,70.527,57.375,127.908,127.901,127.908c18.438,0,36.662-4.044,53.416-11.781
		c22.938,12.644,48.652,19.269,75.123,19.269c35.168,0,69.067-11.814,96.507-33.475c1.057,0.038,2.1,0.06,3.135,0.06
		c55.261,0,100.222-44.953,100.222-100.219C512.029,318.546,488.159,282.773,451.671,267.043z M411.807,414.744
		c-2.144,0-4.507-0.184-7.436-0.575l-10.173-1.359l-7.638,6.852c-20.471,18.38-46.89,28.498-74.396,28.498
		c-22.18,0-43.599-6.505-61.948-18.802l-11.722-7.858l-12.102,7.255c-13.004,7.793-27.794,11.917-42.767,11.917
		c-45.996,0-83.414-37.426-83.414-83.422c0-46.001,37.418-83.419,83.414-83.419c6.005,0,12.219,0.717,18.471,2.133l13.716,3.108
		l8.69-11.065c21.31-27.131,53.261-42.693,87.663-42.693c44.868,0,85.161,26.695,102.656,68.011l4.003,9.451l9.785,3.092
		c23.286,7.353,38.931,28.704,38.931,53.142C467.539,389.741,442.539,414.744,411.807,414.744z M205.938,87.051
		c0.008,0,0.016,0.949,0.027,0.949h0.054c0.014,0,0.018-0.949,0.029-0.949c9.543-0.034,22.202-6.511,22.202-22.732
		c0-23.568-20.011-44.054-22.18-44.721c-0.016-0.01-0.033-0.146-0.051-0.146c-0.006,0-0.019-0.054-0.027-0.054
		c-0.008,0-0.022-0.035-0.027-0.035c-0.019,0-0.035,0.003-0.052,0.013c-2.168,0.667-22.18,21.382-22.18,44.95
		C183.733,80.547,196.392,87.017,205.938,87.051z M66.43,225.289c0-0.012-0.43-0.022-0.43-0.033v-0.054
		c0-0.011,0.43-0.016,0.43-0.027c-0.032-9.543-5.819-22.198-22.041-22.198c-23.568,0-43.707,20.008-44.376,22.177
		c-0.011,0.016,0.027,0.033,0.027,0.049c0,0.011,0.033,0.021,0.033,0.032c0,0.007,0.008,0.022,0.008,0.022
		c0,0.021,0.023,0.038,0.034,0.054c0.669,2.167,20.702,22.183,44.27,22.183C60.607,247.493,66.398,234.831,66.43,225.289z
		 M304.345,126.84c0.008,0.006,0.013,0.011,0.021,0.017c0.006,0.01,0.012,0.015,0.02,0.021c0.008,0.006,0.016,0.006,0.024,0.016
		c6.771,6.723,19.968,11.428,31.437-0.043c16.667-16.661,16.833-45.132,15.773-47.137c-0.005-0.016-0.005-0.042-0.018-0.053
		c-0.003-0.006-0.017-0.011-0.022-0.018c-0.005-0.004-0.011-0.021-0.016-0.021c-0.014-0.015-0.035-0.015-0.054-0.015
		c-2.006-1.066-30.476-0.897-47.14,15.77c-11.469,11.471-6.766,24.666-0.038,31.438C304.336,126.819,304.339,126.83,304.345,126.84z
		 M107.575,126.895c0.007-0.01,0.018-0.01,0.026-0.022c0.006,0,0.011-0.01,0.016-0.01c0.005-0.011,0.014-0.016,0.022-0.026
		c0.008-0.007,0.008-0.018,0.016-0.022c6.725-6.772,11.428-19.966-0.043-31.438C90.948,78.715,62.48,78.54,60.475,79.607
		c-0.019,0-0.04,0-0.055,0.011c-0.005,0.01-0.01,0.021-0.019,0.025c-0.003,0.007-0.019,0.018-0.019,0.018
		c-0.016,0.011-0.016,0.037-0.019,0.053c-1.06,2.005-0.894,30.476,15.77,47.144C87.603,138.329,100.803,133.618,107.575,126.895z"/>
</g>
<g id="monitor" display="none">
	<path display="inline" d="M183.435,443.801c-5.565,19.804-32.587,46.91-52.328,52.489h249.787
		c-19.067-4.942-47.401-33.365-52.328-52.489H183.435z M480.934,15.71H31.069C13.91,15.71,0,29.662,0,46.876v334.731
		c0,17.213,13.91,31.166,31.069,31.166h449.865c17.157,0,31.066-13.953,31.066-31.166V46.876
		C512,29.662,498.091,15.71,480.934,15.71z M459.671,312.097H52.331L52.328,68.205l407.341-0.002v243.894H459.671z"/>
</g>
<g id="menu" display="none">
	<g display="inline">
		<g>
			<path d="M0,458.966h512v-74.938H0V458.966z M0,293.472h512V218.53H0V293.472z M0,53.034v74.941h512V53.034H0z"/>
		</g>
	</g>
</g>
<g id="map" display="none">
	<g display="inline">
		<g>
			<path d="M508.775,83.815C454.157,56.528,399.547,29.224,344.943,1.91C343.915,1.4,342.978,0.709,342,0.097h-2
				c-10.642,4.156-21.24,8.425-31.932,12.448c-44.49,16.732-88.996,33.415-133.545,49.985c-2.107,0.782-4.972,1.033-7.015,0.27
				C112.842,42.441,58.239,21.922,3.632,1.406C2.718,1.067,1.876,0.539,0.999,0.097c-0.333,1.502-0.957,3.001-0.958,4.5
				C-0.004,145.376,0,286.156,0,426.934c1.076,0.417,2.197,0.745,3.223,1.255c54.619,27.286,109.228,54.585,163.833,81.899
				c1.026,0.514,1.964,1.208,2.944,1.814h2c1.327-0.901,2.571-1.956,3.992-2.667c53.69-26.854,107.4-53.659,161.077-80.535
				c2.664-1.335,4.821-1.946,7.822-0.443c54.396,27.32,108.86,54.507,163.298,81.739c1.003,0.502,1.877,1.267,2.81,1.905
				c0.333-1.501,0.958-2.998,0.958-4.499C512.001,366.625,512,225.846,512,85.065C510.921,84.653,509.803,84.324,508.775,83.815z
				 M469.258,435.185v6.187c-2.45-1.204-4.202-2.04-5.93-2.919c-32.766-16.696-65.461-33.539-98.349-49.996
				c-6.94-3.473-14.531-5.701-21.95-8.109c-1.589-0.516-3.912,0.313-5.594,1.136c-25.689,12.608-51.379,25.21-76.963,38.03
				c-28.711,14.389-57.336,28.955-85.932,43.573c-2.816,1.437-4.935,1.454-7.779,0.022c-39.991-20.115-80.036-40.112-120.114-60.05
				c-2.669-1.326-3.983-2.729-3.979-5.959c0.09-110.454,0.074-220.906,0.084-331.356c0-0.985,0.136-1.968,0.252-3.551
				c3.2,1.159,6.12,2.173,9.012,3.266c33.151,12.501,66.337,24.921,99.427,37.587c11.468,4.389,21.626,4.857,34.057,0.038
				c49.93-19.346,100.562-36.888,150.978-54.974c1.616-0.581,3.979-0.398,5.538,0.367c41.264,20.158,82.44,40.496,123.727,60.607
				c3.578,1.744,3.538,4.169,3.537,7.239C469.253,222.609,469.258,328.897,469.258,435.185z M405.331,192.056
				c-23.339,0.015-42.525,19.241-42.523,42.617c0.003,23.461,19.072,42.52,42.541,42.51c23.387-0.006,42.619-19.195,42.619-42.518
				C447.969,211.436,428.564,192.042,405.331,192.056z M127.856,128.091c-23.297,0.136-42.726,19.681-42.499,42.743
				c0.233,23.476,19.419,42.473,42.785,42.367c23.403-0.11,42.735-19.502,42.515-42.652
				C170.436,147.191,151.04,127.948,127.856,128.091z M127.897,320.015c-23.287,0.101-42.706,19.595-42.542,42.704
				c0.169,23.434,19.372,42.486,42.747,42.408c23.396-0.081,42.71-19.418,42.554-42.614
				C170.5,339.2,151.096,319.914,127.897,320.015z M405.18,298.796c-11.757,0.063-21.231,9.622-21.145,21.332
				c0.086,11.72,9.659,21.109,21.451,21.04c11.773-0.074,21.284-9.666,21.154-21.345
				C426.507,308.032,417.012,298.731,405.18,298.796z M277.198,149.52c0.068-11.754-9.356-21.354-21.049-21.435
				c-11.703-0.082-21.274,9.4-21.338,21.14c-0.063,11.795,9.278,21.323,21.04,21.449
				C267.509,170.799,277.132,161.265,277.198,149.52z M384.205,170.673c11.777-0.177,21.069-9.7,20.981-21.506
				c-0.087-11.735-9.689-21.196-21.391-21.083c-11.698,0.116-21.084,9.726-20.993,21.496
				C362.895,161.317,372.561,170.846,384.205,170.673z M213.169,170.844c-11.743,0.07-21.223,9.644-21.135,21.343
				c0.091,11.689,9.694,21.102,21.458,21.029c11.746-0.072,21.283-9.702,21.146-21.351
				C234.5,180.101,224.974,170.773,213.169,170.844z M341.187,127.851c-0.084-11.826-9.505-21.068-21.383-20.981
				c-11.83,0.083-21.078,9.503-20.991,21.374c0.084,11.827,9.505,21.069,21.383,20.986
				C332.027,149.141,341.273,139.728,341.187,127.851z M277.192,320.013c-11.639,0.076-21.243,9.798-21.164,21.429
				c0.079,11.613,9.883,21.295,21.447,21.174c11.69-0.124,21.284-9.851,21.165-21.46
				C298.521,329.476,288.845,319.936,277.192,320.013z M341.535,320.006c-11.654-0.116-21.387,9.43-21.499,21.087
				c-0.111,11.649,9.383,21.329,21.09,21.505c11.596,0.17,21.352-9.391,21.525-21.096
				C362.823,329.942,353.173,320.119,341.535,320.006z M213.666,341.329c-11.524-0.283-21.441,9.329-21.631,20.962
				c-0.191,11.628,9.309,21.432,20.956,21.621c11.638,0.193,21.347-9.209,21.639-20.943
				C234.916,351.435,225.402,341.618,213.666,341.329z"/>
		</g>
	</g>
</g>
<g id="mail" display="none">
	<path display="inline" d="M0.005,70.602v370.812h0.441h510.316h1.243V70.602H0.005z M454.011,113.129L255.938,261.434
		L58.003,113.129H454.011z M43.445,155.772l106.126,79.517L43.445,339.177V155.772z M43.885,398.888L184.37,261.361l71.558,53.617
		l71.213-53.323l140.18,137.232H43.885L43.885,398.888z M468.562,339.968L361.948,235.596l106.614-79.824V339.968z"/>
</g>
<g id="logo" display="none">
	<g display="inline">
		<g>
			<path d="M319.678,167.045c-12.957,10.363-25.95,22.444-34.443,30.842c4.536-2.622,10.204-5.855,16.12-8.993
				c7.575-3.86,19.732-9.648,30.982-9.692c6.129,0.014,10.666,1.841,10.67,5.287c0,0.218-0.023,0.411-0.039,0.649
				c-0.649,3.496-6.092,7.739-9.96,11.127c-3.843,3.137-6.695,5.943-8.268,8.099c-0.483,0.921-0.694,1.682-0.694,2.216
				c0,0.456,0.155,0.727,0.358,0.911c0.268,0.4,1.487,0.786,4.056,0.774c6.938,0.012,14.341-1.948,21.586-3.947
				c12.146-3.401,20.531-5.663,28.623-6.657c-13.972-9.468-58.445-31.057-58.445-31.057
				C320.039,166.755,319.861,166.899,319.678,167.045z"/>
			<path d="M266.05,147.305c0,0-14.289,5.538-30.229,14.699c0,0-10.131-4.825-16.076-6.646c0,0-40.661,13.939-112.028,53.948
				c11.265-0.166,38.963-3.709,82.128-29.124c57.81-34.039,8.463,14.91,8.463,14.91s78.95-34.041,54.516-11.343
				c-12.834,11.912-20.347,23.113-11.313,20.067c6.616-1.624,25.846-8.632,62.735-38.62
				C304.247,165.195,286.337,154.069,266.05,147.305z"/>
		</g>
		<g>
			<path d="M430.996,225.352h0.003l-4.4-2.336l-23.551-12.495c-0.251,1.114-1.201,2.255-1.201,2.255
				c-2.958,3.556-8.653,6.141-11.113,6.976c-0.747,0.233-1.123,0.449-1.977,0.477c-0.014,0.006-0.035,0.006-0.047,0.006
				c-0.33,0-0.777-0.092-1.054-0.303c-0.247-0.163-0.412-0.447-0.402-0.699c0.173-0.86,0.662-0.936,1.057-1.423
				c0.983-0.747,2.93-3.783,2.872-5.805c-0.119-5.38-4.57-6.91-12.107-7.035c-7.243,0-14.601,1.457-31.058,5.797
				c-5.084,1.335-15.616,4.217-26.781,4.396c-0.789,0.021-1.57,0.041-2.314,0.041c-9.406,0.077-14.684-2.201-14.89-6.332
				c-0.021-0.113-0.023-0.25-0.021-0.366c0.066-4.504,4.804-8.17,9.477-12.223c3.892-3.353,7.283-6.029,9.93-8.342
				c0.37-0.315,0.528-0.658,0.509-0.763c-0.063-0.105,0.02-0.023-0.449-0.191c-0.009-0.007-0.182-0.056-0.491-0.056
				c-1.051-0.018-3.252,0.492-5.34,1.254c-4.519,1.626-10.777,4.446-17.246,8.092c-6.684,3.666-11.545,6.47-16.775,9.463
				c-3.916,2.287-9.563,5.758-11.103,6.576c-7.988,4.253-15.542-0.817-8.619-7.404c6.898-6.573-9.776,0.828-9.776,0.828
				c-3.743,1.557-7.173,3.027-10.422,4.179c-4.96,1.965-10.905,3.718-16.651,3.739c-0.248,0.009-0.474,0-0.695,0.009
				c-3.98,0-6.779-0.665-8.591-1.828c-1.787-1.15-2.449-2.716-2.434-4.197c0-0.306,0.027-0.635,0.09-0.911
				c0.59-3.386,4.09-6.496,9.234-10.615c7.857-6.291-0.304-6.743-20.749,5.686c-20.448,12.441-30.376,12.986-30.376,12.986
				c-9.567,1.24-14.359-2.681-5.684-10.929c8.673-8.254-12.26,1.031-12.26,1.031c-1.623,0.67-3.197,1.311-4.745,1.919
				c-12.561,5.438-31.057,12.17-48.508,12.197c-2.604,0-4.911-0.214-7.044-0.536c0,0-1.891-0.3-3.339-0.808l-14.493,7.687h0.003
				l-7.693,4.08c18.298,2.284,38.837,1.158,54.973-3.497c10.15-2.93,22.414-9.162,15.929-1.825
				c-8.85,10.028,23.947,1.706,23.947,1.706c18.672-4.807,33.169-12.095,29.011-4.462c-5.147,9.441,18.473,7.012,38.536,1.545
				c8.293-2.261,16.25-5.523,15.048-0.309c-1.617,7.08,7.089,9.722,30.108-1.213c7.178-3.407,22.583-10.366,17.448-2.847
				c-4.649,6.806,2.896,13.806,24.239,9.689c21.347-4.119,58.124-14.99,54.233-6.537c-4.689,10.19,29.758,10.607,61.856,5.846
				L430.996,225.352z"/>
			<g>
				<path d="M154.362,338.956h-1.909v-3.011h8.518v3.011h-2.056l3.782,10.318c0.257,0.771,0.403,1.542,0.624,2.314h0.073
					c0.184-0.772,0.294-1.579,0.551-2.314l3.709-10.318h-2.423v-3.011h8.518v3.011h-1.983l-6.5,16.082h-4.333L154.362,338.956z"/>
				<path d="M175.071,352.027h2.498l0.073-13.072h-2.901v-3.011h7.014l-0.074,16.082h2.571v3.011h-9.18V352.027z M179.698,326.361
					c1.578,0,2.827,1.248,2.827,2.827c0,1.579-1.249,2.827-2.827,2.827c-1.579,0-2.827-1.248-2.827-2.827
					C176.871,327.609,178.119,326.361,179.698,326.361z"/>
				<path d="M197.983,341.415l-0.074-2.276c-0.587-0.33-1.469-0.625-3.121-0.625c-1.91,0-3.855,0.441-3.855,2.314
					c0,1.469,1.248,1.873,2.423,2.13l4.664,0.917c2.166,0.441,4.626,1.359,4.626,5.251c0,5.031-4.333,6.353-8.555,6.353
					c-3.231,0-5.728-0.697-6.94-1.138l-0.073-5.177h3.672l0.074,2.534c0.734,0.22,2.02,0.771,4.075,0.771
					c1.946,0,3.855-0.735,3.855-2.681c0-1.615-1.211-2.129-2.753-2.422l-3.048-0.551c-2.938-0.551-6.132-1.653-6.132-5.289
					c0-4.479,3.929-6.022,8.115-6.022c3.121,0,5.508,0.882,6.646,1.249l0.074,4.662H197.983z"/>
				<path d="M205.693,352.027h2.498l0.073-13.072h-2.901v-3.011h7.014l-0.074,16.082h2.571v3.011h-9.18V352.027z M210.32,326.361
					c1.578,0,2.827,1.248,2.827,2.827c0,1.579-1.249,2.827-2.827,2.827c-1.579,0-2.827-1.248-2.827-2.827
					C207.492,327.609,208.74,326.361,210.32,326.361z"/>
				<path d="M216.928,335.945h2.901l0.074-4.296l4.149-0.294l-0.147,4.59h5.471v3.011h-5.471c-0.037,3.048-0.074,6.059-0.074,8.923
					c0,3.488,0.772,4.37,2.68,4.37c1.102,0,2.277-0.367,3.194-0.735l-0.147,3.011c-1.028,0.513-2.607,0.954-4.223,0.954
					c-4.039,0-5.617-1.579-5.617-5.876c0-2.46,0.073-7.343,0.11-10.648h-2.901V335.945z"/>
				<path d="M231.175,352.027h2.167l0.073-13.072h-2.68v-3.011h6.793c0,1.286-0.111,2.607-0.367,4.223h0.073
					c0.772-2.46,2.901-4.664,6.719-4.664c4.48,0,6.646,2.829,6.646,7.381c0,3.047-0.111,6.095-0.147,9.142h2.497v3.011h-8.776
					v-3.011h2.166c0.037-2.79,0.147-5.618,0.147-8.408c0-2.681-1.248-4.664-3.855-4.664c-2.827,0-4.957,2.24-5.03,5.802l-0.147,7.27
					h2.57v3.011h-8.85V352.027z"/>
				<path d="M255.665,352.027h2.167l0.148-22.214h-2.755v-3.011h7.013l-0.11,9.142c0,1.286-0.221,2.607-0.477,4.223h0.072
					c0.772-2.46,2.901-4.664,6.72-4.664c4.48,0,6.646,2.829,6.646,7.381c0,3.047-0.111,6.095-0.148,9.142h2.497v3.011h-8.777v-3.011
					h2.166c0.038-2.79,0.148-5.618,0.148-8.408c0-2.681-1.248-4.664-3.855-4.664c-2.827,0-4.957,2.24-5.031,5.802l-0.146,7.27h2.57
					v3.011h-8.849V352.027z"/>
				<path d="M283.829,349.935c1.578,0,2.827,1.248,2.827,2.827s-1.25,2.827-2.827,2.827c-1.579,0-2.829-1.248-2.829-2.827
					S282.25,349.935,283.829,349.935z"/>
				<path d="M309.715,338.956l-3.672-0.22c0.623,0.697,1.579,1.873,1.579,4.149c0,4.075-3.636,6.792-7.748,6.792h-1.542
					c-1.028,0-2.094,0.699-2.094,1.432c0,0.882,0.956,1.028,3.232,1.359l4.994,0.697c2.68,0.367,5.03,1.396,5.03,4.59
					c0,5.177-5.066,6.94-10.061,6.94c-5.177,0-8.959-1.947-8.959-5.067c0-2.57,2.056-4.185,4.442-4.516v-0.074
					c-1.432-0.294-2.79-1.1-2.79-2.827c0-1.983,2.019-2.863,3.634-3.121v-0.074c-2.129-0.587-4.846-2.166-4.846-6.241
					c0-4.149,3.085-7.271,8.518-7.271c1.286,0,2.607,0.257,3.378,0.441h7.05L309.715,338.956z M297.414,355.589
					c-1.873,0.808-3.047,1.725-3.047,3.194c0,2.204,2.35,2.901,5.471,2.901c2.753,0,5.764-0.771,5.764-3.195
					c0-1.358-1.138-1.837-3.414-2.166L297.414,355.589z M299.654,346.666c2.901,0,4.516-1.615,4.516-4.149
					c0-2.57-1.763-4.003-4.738-4.003c-2.863,0-4.626,1.689-4.626,4.15C294.807,345.418,296.606,346.666,299.654,346.666z"/>
				<path d="M321.537,335.504c7.05,0,9.364,5.398,9.364,10.098c0,5.435-3.306,9.877-9.841,9.877c-6.83,0-9.51-4.736-9.51-9.584
					C311.55,339.654,315.699,335.504,321.537,335.504z M321.17,352.027c3.746,0,5.397-3.121,5.397-6.866
					c0-4.297-2.239-6.205-5.103-6.205c-4.075,0-5.581,3.414-5.581,6.792C315.883,348.943,317.462,352.027,321.17,352.027z"/>
				<path d="M333.032,338.956h-1.909v-3.011h8.518v3.011h-2.056l3.783,10.318c0.256,0.771,0.403,1.542,0.623,2.314h0.074
					c0.184-0.772,0.294-1.579,0.551-2.314l3.708-10.318h-2.422v-3.011h8.518v3.011h-1.983l-6.499,16.082h-4.333L333.032,338.956z"/>
			</g>
			<g>
				<path d="M1.606,293.243h4.351v-36.092H0v-7.422h13.586l19.745,26.997c2.075,2.838,3.347,4.875,3.949,6.839h0.133v-26.414h-4.283
					v-7.422h16.934v7.422h-4.618v43.514h-7.229L15.93,270.25c-1.138-1.528-2.075-3.202-2.209-3.929h-0.134v26.923h4.552v7.422H1.606
					V293.243z"/>
				<path d="M59.834,283.929c0.268,6.04,4.552,9.751,11.111,9.751c4.485,0,7.363-0.801,11.312-2.619l-0.468,8.077
					c-4.351,1.746-8.166,2.401-12.918,2.401c-13.52,0-19.21-9.168-19.21-19.72c0-11.861,6.626-20.082,17.604-20.082
					c12.048,0,16.934,9.895,16.934,22.193H59.834z M74.023,276.944c0-5.239-2.744-8.223-7.094-8.223
					c-4.284,0-6.76,3.056-7.162,8.223H74.023z"/>
				<path d="M128.437,262.61h16.733v7.422h-3.213l-12.114,30.634h-9.772l-4.686-13.171c-0.334-0.945-0.668-1.891-0.802-3.274h-0.134
					c-0.201,1.383-0.469,2.329-0.87,3.274l-5.288,13.171h-9.772l-11.78-30.634h-3.28v-7.422h16.734v7.422h-3.28
					c0.602,1.091,1.138,2.547,1.673,4.22l4.284,12.88c0.468,1.454,0.803,2.765,1.071,4.366h0.134
					c0.335-1.528,0.937-2.911,1.539-4.44l5.221-12.661l-1.606-4.366h-3.749v-7.422h17.001v7.422h-3.615
					c0.603,1.091,1.138,2.547,1.674,4.22l4.351,12.88c0.602,1.746,0.802,2.765,1.07,4.366h0.134c0.268-1.6,0.468-2.619,1.071-4.366
					l4.217-12.88c0.535-1.672,1.071-3.128,1.673-4.22h-4.619V262.61z"/>
				<path d="M195.431,257.151h-4.217v-7.422h18.205v7.422h-4.217v36.092h4.217v7.422h-18.205v-7.422h4.217v-14.116h-19.277v14.116
					h4.217v7.422h-18.205v-7.422h4.217v-36.092h-4.217v-7.422h18.205v7.422h-4.217v14.118h19.277V257.151z"/>
				<path d="M234.115,276.434c0-5.748-2.209-7.276-6.626-7.276c-1.339,0-4.217,0.437-5.823,1.091v5.093h-8.032v-9.677
					c2.275-1.383,7.764-3.929,13.989-3.929c9.37,0,15.327,3.565,15.327,14.625c0,6.258-0.2,11.497-0.334,16.882h3.949v7.422h-11.78
					v-2.329c0-2.473,0.134-3.783,0.468-5.239h-0.134c-2.342,5.749-5.555,8.441-11.445,8.441c-7.898,0-11.713-5.093-11.713-11.06
					c0-5.457,3.347-9.022,7.027-10.478c3.548-1.383,8.3-1.746,15.127-1.746V276.434z M231.371,284.512
					c-7.63,0-10.04,1.746-10.04,5.021c0,2.255,1.472,4.584,5.154,4.584c3.749,0,7.496-2.619,7.496-9.605H231.371z"/>
				<path d="M295.69,293.243h3.413v-15.644c0-5.239-2.543-7.131-6.091-7.131c-4.551,0-7.429,4.001-7.429,10.115v12.661h4.016v7.422
					h-16.801v-7.422h3.414v-15.644c0-5.239-2.544-7.131-6.091-7.131c-4.953,0-7.431,4.366-7.431,10.115v12.661h4.017v7.422h-17.201
					v-7.422h3.816v-23.212h-4.552v-7.422h13.722c0,2.619,0,5.093-0.536,7.712h0.134c1.942-5.529,6.293-8.585,12.116-8.585
					c5.755,0,9.37,2.91,10.308,8.585h0.134c1.673-5.311,5.555-8.585,11.712-8.585c8.299,0,12.116,5.748,12.116,14.843v16.663h4.015
					v7.422H295.69V293.243z"/>
				<path d="M318.175,270.031h-5.355v-7.422h14.591c0.068,2.401-0.266,4.802-0.602,7.203h0.134
					c2.142-5.167,6.025-8.077,11.914-8.077c7.697,0,13.52,6.038,13.52,17.391c0,10.405-4.617,22.411-19.543,22.411
					c-1.54,0-3.816-0.291-5.289-0.655v10.624h4.016v7.423h-17.201v-7.423h3.815V270.031z M327.345,292.224
					c1.272,0.51,3.882,1.019,5.957,1.019c6.761,0,9.705-6.186,9.705-12.953c0-5.239-1.74-10.259-7.563-10.259
					c-6.225,0-8.099,4.875-8.099,9.605V292.224z"/>
				<path d="M375.935,269.813c-1.874-0.729-3.682-1.091-5.422-1.091c-4.283,0-6.291,1.892-6.291,4.001
					c0,1.82,0.468,2.547,3.146,2.984l7.362,1.164c8.033,1.237,11.379,4.586,11.379,11.497c0,6.768-4.351,13.171-16.533,13.171
					c-4.217,0-10.04-0.945-13.788-2.401v-10.696h8.433v4.438c1.54,0.583,4.217,1.237,6.225,1.237c1.941,0,6.827-0.655,6.827-4.656
					c0-2.111-1.204-3.202-5.287-3.857l-7.899-1.31c-6.091-1.019-8.701-4.658-8.701-10.115c0-9.386,8.165-12.442,15.394-12.442
					c3.749,0,8.433,0.655,13.588,2.546v9.388h-8.433V269.813z"/>
				<path d="M392.263,252.13h-5.353v-7.422h14.524v17.901c0,2.619,0,5.093-0.536,7.858h0.134c1.74-5.021,6.023-8.731,12.114-8.731
					c8.299,0,12.116,5.748,12.116,14.843v16.663h4.015v7.422h-17.201v-7.422h3.815v-15.644c0-5.239-2.543-7.131-6.091-7.131
					c-5.689,0-8.165,4.366-8.165,10.115v12.661h4.017v7.422h-17.203v-7.422h3.815V252.13z"/>
				<path d="M435.767,270.031h-4.551v-7.422h13.922v30.634h4.017v7.422h-17.203v-7.422h3.815V270.031z M440.118,243.617
					c3.883,0,6.293,2.547,6.293,6.33s-2.41,6.33-6.293,6.33c-3.881,0-6.291-2.547-6.291-6.33S436.237,243.617,440.118,243.617z"/>
				<path d="M456.247,270.031h-4.551v-7.422h13.586c0,2.619-0.134,5.165-0.602,8.731h0.134c1.406-6.404,4.685-9.605,10.04-9.605
					c1.138,0,2.076,0.218,3.079,0.437l-0.602,9.096c-1.004-0.218-2.074-0.364-3.011-0.364c-5.087,0-8.701,3.783-8.701,10.041v12.298
					h4.417v7.422h-17.603v-7.422h3.815V270.031z"/>
				<path d="M487.636,283.929c0.268,6.04,4.551,9.751,11.112,9.751c4.483,0,7.361-0.801,11.312-2.619l-0.47,8.077
					c-4.351,1.746-8.165,2.401-12.918,2.401c-13.52,0-19.209-9.168-19.209-19.72c0-11.861,6.627-20.082,17.603-20.082
					c12.048,0,16.935,9.895,16.935,22.193H487.636z M501.826,276.944c0-5.239-2.744-8.223-7.095-8.223
					c-4.284,0-6.761,3.056-7.161,8.223H501.826z"/>
			</g>
		</g>
	</g>
</g>
<g id="leaf" display="none">
	<path display="inline" d="M128.557,95.578C24.466,155.918,30.44,254.204,34.025,290.57
		c134.448-159.112,335.56-151.396,335.56-151.396S84.504,236.867,0.775,432.774c-6.612,15.465,31.027,35.575,39.617,17.294
		c25.64-54.483,61.362-95.338,61.362-95.338c52.708,19.593,143.889,42.559,208.517-2.876
		c85.841-60.352,77.07-194.14,199.613-259.285C538.507,77.358,269.681,13.761,128.557,95.578z"/>
</g>
<g id="instagram" display="none">
	<path display="inline" d="M452.938,0H59.067C26.45,0,0,26.439,0,59.068V452.9C0,485.543,26.45,512,59.067,512h393.872
		c32.621,0,59.062-26.457,59.061-59.1V59.068C512,26.439,485.56,0,452.938,0z M256.001,157.537c54.381,0,98.471,44.07,98.471,98.454
		c0,54.375-44.09,98.471-98.471,98.471c-54.385,0-98.466-44.096-98.466-98.471C157.535,201.609,201.615,157.537,256.001,157.537z
		 M453,433.225c0,10.862-8.882,19.775-19.776,19.775H78.776C67.885,453,59,444.088,59,433.225V217h44.642
		c-3.247,12-5.172,25.576-5.172,39.192c0,87.018,70.529,157.443,157.531,157.443s157.529-70.374,157.529-157.392
		c0-13.617-1.919-27.243-5.165-39.243H453V433.225z M453,137.845C453,148.71,444.119,158,433.226,158h-59.062
		C363.283,158,354,148.71,354,137.845V78.76C354,67.886,363.283,59,374.164,59h59.062C444.118,59,453,67.886,453,78.76V137.845z"/>
</g>
<g id="facebook" display="none">
	<path display="inline" d="M373.332,89.707c0,0-39.652,0-55.405,0c-19.558,0-23.635,8.067-23.635,28.444c0,16.959,0,49.233,0,49.233
		h79.04l-7.607,86.428h-71.433V512H191.91V254.906h-53.242v-87.522h53.242c0,0,0-12.582,0-68.922C191.91,33.779,226.259,0,302.443,0
		c12.481,0,70.888,0,70.888,0V89.707z"/>
</g>
<g id="document-list" display="none">
	<g display="inline">
		<g>
			<path d="M186.004,292.693h-38.263v38.094h38.263V292.693z M186.004,222.43h-38.263v38.094h38.263V222.43z M147.756,401.155
				h38.275v-38.094h-38.275V401.155z M221.74,401.155h140.37v-38.094H221.74V401.155z M221.74,260.524h140.329V222.43H221.74
				V260.524z M362.069,292.693H221.74v38.094h140.329V292.693z M452.525,111.331l-101.84-99.799C343.172,4.095,333.201,0,322.604,0
				H87.48C76.822,0,66.809,4.138,59.284,11.648c-7.527,7.511-11.652,17.489-11.623,28.057l0.372,432.77
				C48.09,494.27,65.953,512,87.853,512h336.552c10.656,0,20.669-4.134,28.194-11.642c7.525-7.509,11.655-17.483,11.628-28.034
				l0.113-332.93C464.309,128.808,460.14,118.869,452.525,111.331z M424.433,472.367l-336.58,0.038L87.48,39.633l219.833,0.065
				v92.67c0,11.369,9.26,20.585,20.682,20.585h96.52L424.433,472.367z"/>
		</g>
	</g>
</g>
<g id="chevron-up" display="none">
	<path display="inline" d="M117.666,363.329l138.333-137.485l138.335,135.245l43.289-36.742L255.999,148.673L74.377,326.592
		L117.666,363.329z"/>
</g>
<g id="chevron-right" display="none">
	<path display="inline" d="M148.672,117.667L286.157,256L150.912,394.335l36.742,43.289L363.328,256L185.409,74.378L148.672,117.667
		z"/>
</g>
<g id="chevron-left" display="none">
	<path display="inline" d="M363.328,394.335L225.843,256.002l135.245-138.335l-36.742-43.289L148.672,256.002l177.919,181.622
		L363.328,394.335z"/>
</g>
<g id="chevron-down" display="none">
	<path display="inline" d="M394.334,148.673L256.001,286.158L117.666,150.913l-43.289,36.742l181.624,175.674L437.623,185.41
		L394.334,148.673z"/>
</g>
<g id="campsite" display="none">
	<g display="inline">
		<g>
			<path d="M66.099,337.353l76.513-133.497l15.817-27.589h0.604l-0.343-0.458L93.071,88.585l-65.953,87.681h33.709l-48.372,77.162
				h34.203L0,337.432L66.099,337.353z M371.302,207.201l75.441,131.627l65.257,0.12l-45.369-85.521h33.255l-47.032-77.162h32.782
				l-64.129-85.25l-64.133,85.25h32.783L371.302,207.201z M480.447,418.04H31.552c-9.956,0-18.059,8.078-18.059,18.004
				c0,9.927,8.102,18.006,18.059,18.006h448.895c9.956,0,18.059-8.079,18.059-18.006C498.506,426.118,490.404,418.04,480.447,418.04
				z M61.326,397.483c1.844,3.175,5.246,5.124,8.923,5.124h371.5c0.029,0,0.071-0.004,0.1,0c5.704,0,10.32-4.605,10.32-10.288
				c0-2.346-0.786-4.511-2.111-6.239L264.959,63.136c-1.834-3.206-5.256-5.185-8.96-5.185c-3.703,0-7.124,1.979-8.959,5.185
				L61.291,387.215C59.467,390.401,59.477,394.308,61.326,397.483z M255.999,168.258c0.278-2.756,0.554-5.4,0.827-7.965
				c6.012,92.844,44.86,169.225,96.76,196.016c3.889,2.01,7.854,3.708,11.886,5.144c7.366,2.633,14.955,4.291,22.71,4.873
				c-0.438,0.121-0.861,0.272-1.335,0.272c-0.031-0.006-0.066,0-0.101,0H255.999V168.258z"/>
		</g>
	</g>
</g>
<g id="arrow-down" display="none">
	<polygon display="inline" stroke="#000000" stroke-miterlimit="10" points="462.414,105.5 256,371.52 49.586,105.5 	"/>
</g>
<g id="close">
	<polygon points="492.701,81.907 430.093,19.299 256,193.391 81.907,19.299 19.299,81.907 193.391,256 19.299,430.093 
		81.907,492.701 256,318.609 430.093,492.701 492.701,430.093 318.609,256 	"/>
</g>
<g id="film" display="none">
	<path display="inline" fill-rule="evenodd" clip-rule="evenodd" d="M510.319,430.919c-2.149-3.705-9.054-4.839-20.713-3.397
		c-21.463,2.777-37.038-4.203-46.746-20.937c-7.346-12.665-9.247-25.39-5.694-38.192c3.547-12.792,14.055-31.062,31.52-54.798
		l10.929-15.13c32.43-44.6,39.081-83.395,19.948-116.381c-19.451-33.537-75.532-30.795-115.941-13.615
		c-32.686-67.124-101.788-113.41-181.753-113.41C90.379,55.059,0,145.024,0,256c0,110.976,90.379,200.941,201.87,200.941
		c111.487,0,201.867-89.965,201.867-200.941c0-24.65-4.468-48.258-12.627-70.079c13.57-4.794,29.939-8.189,45.21-8.747
		c20.229-0.742,38.522,3.487,45.784,16.008c16.212,27.951,8.389,60.954-23.456,99.009l-6.517,7.8
		c-37.238,44.499-46.152,83.473-26.756,116.915c7.832,13.5,20.302,23.133,37.415,28.911c17.112,5.776,31.606,5.245,43.488-1.585
		C512.16,440.851,513.508,436.415,510.319,430.919z M109.349,298.909c-23.228,0-42.056-18.743-42.056-41.864
		c0-23.118,18.828-41.861,42.056-41.861c23.227,0,42.055,18.743,42.055,41.861C151.403,280.167,132.575,298.909,109.349,298.909z
		 M201.871,391.005c-23.227,0-42.057-18.742-42.057-41.86c0-23.123,18.83-41.864,42.057-41.864
		c23.225,0,42.055,18.741,42.055,41.864C243.927,372.263,225.097,391.005,201.871,391.005z M185.396,257.045
		c0-9.247,7.534-16.743,16.824-16.743c9.29,0,16.822,7.496,16.822,16.743c0,9.249-7.533,16.748-16.822,16.748
		C192.93,273.793,185.396,266.294,185.396,257.045z M201.871,206.809c-23.227,0-42.057-18.74-42.057-41.861
		c0-23.119,18.83-41.862,42.057-41.862c23.225,0,42.055,18.743,42.055,41.862C243.927,188.069,225.097,206.809,201.871,206.809z
		 M294.394,298.909c-23.228,0-42.055-18.743-42.055-41.864c0-23.118,18.828-41.861,42.055-41.861
		c23.228,0,42.056,18.743,42.056,41.861C336.45,280.167,317.622,298.909,294.394,298.909z"/>
</g>
<g id="brochure" display="none">
	<path display="inline" d="M318,511.999c-3.667,0-7.334,0-11,0c-9.143-3.452-18.437-6.552-27.402-10.418
		c-34.157-14.734-68.202-29.723-102.318-44.549c-0.87-0.378-2.222-0.26-3.122,0.141c-12.285,5.455-24.422,11.262-36.808,16.475
		c-30.724,12.924-61.559,25.588-92.349,38.352c-3.667,0-7.333,0-11,0c-1.661-0.6-3.292-1.313-4.989-1.787
		c-8.775-2.441-16.245-7.119-20.954-14.84c-3.45-5.659-5.425-12.216-8.057-18.373C0,345.665,0,214.336,0,83.005
		c0.334-1.092,0.716-2.17,0.993-3.272c3.517-14.012,11.823-23.726,25.291-29.296c17.17-7.11,34.084-14.832,51.258-21.93
		c23.413-9.677,46.965-19.018,70.459-28.506c3.333,0,6.667,0,10,0c5.538,2.441,11.063,4.916,16.637,7.27
		c0.765,0.328,1.893,0.305,2.674-0.005c5.92-2.359,11.798-4.828,17.688-7.265c3.334,0,6.667,0,10,0
		c4.686,1.568,9.505,2.827,14.036,4.758c36.224,15.429,72.513,30.719,108.472,46.748c6.518,2.904,10.971,2.93,17.391-0.125
		c18.287-8.703,37.04-16.458,55.765-24.209C423.025,17.912,445.546,9.04,468,0.001c3,0,5.999,0,9.001,0
		c6.058,2.573,12.516,4.485,18.089,7.86c10.012,6.059,14.29,16.204,16.911,27.141c0,131.667,0,263.331,0,395
		c-0.639,1.85-1.318,3.69-1.907,5.555c-3.716,11.777-11.183,20.259-22.492,25.177c-17.658,7.679-35.311,15.384-53.106,22.74
		c-23.427,9.682-46.99,19.033-70.494,28.524c-3.334,0-6.667,0-10.002,0c-6.059-2.41-12.12-4.828-18.003-7.173
		C330.138,507.162,324.07,509.582,318,511.999z M319.984,279.607c0-62.818-0.072-125.641,0.114-188.462
		c0.019-6.134-2.227-9.414-7.726-11.742C276.84,64.339,241.4,49.055,205.92,33.872c-8.915-3.817-13.925-0.568-13.926,9.034
		c-0.012,126.306,0.014,252.616-0.082,378.928c-0.005,5.27,1.974,8.297,6.757,10.305c18.099,7.595,36.113,15.402,54.152,23.138
		c18.194,7.804,36.352,15.686,54.581,23.406c7.078,2.999,12.298-0.485,12.572-8.11c0.047-1.334,0.01-2.666,0.01-4
		C319.984,404.252,319.984,341.93,319.984,279.607z M32.001,280.001c0,62.998-0.006,125.995,0.008,188.992
		c0.001,9.327,4.856,13.002,12.923,9.551c36.102-15.442,72.146-31.012,108.242-46.465c4.685-2.003,6.875-5.079,6.872-10.342
		c-0.083-126.328-0.065-252.656-0.087-378.987c-0.001-9.334-5.034-12.673-13.614-9.003C110.857,48.932,75.416,64.223,39.897,79.335
		c-5.602,2.386-8.046,5.819-8.027,12.175C32.063,154.34,31.988,217.171,32.001,280.001z M479.984,231.997
		c0-62.998,0.008-125.991-0.009-188.992c-0.001-9.68-4.941-12.944-13.854-9.131c-35.334,15.114-70.628,30.333-106.001,45.36
		c-5.783,2.456-8.26,5.994-8.251,12.536c0.163,125.491,0.124,250.986,0.133,376.479c0.001,10.725,4.704,13.847,14.544,9.628
		c35.015-15.019,69.984-30.147,105.064-45.011c6.034-2.556,8.522-6.141,8.499-12.878
		C479.897,357.324,479.984,294.661,479.984,231.997z"/>
</g>
<g id="book" display="none">
	<path display="inline" d="M512,90.453c0,113.805,0,227.608,0,341.412c-3.988,8.505-10.421,11.216-19.5,10.267
		c-19.027-1.985-38.109-3.618-57.208-4.634c-30.191-1.601-60.241,0.074-89.863,6.737c-14.16,3.185-28.388,6.938-40.187,15.986
		c-13.307,10.207-25.836,21.491-42.242,26.307c-4.333,0-8.667,0-12.998,0c-15.521-3.811-27.469-13.909-39.93-23.394
		c-6.432-4.903-13.992-8.629-21.539-11.501c-25.715-9.783-52.681-12.679-79.847-13.598c-29.472-0.999-58.908-0.04-88.176,3.947
		c-9.215,1.26-16.382-0.895-20.51-10.118C0,318.749,0,205.633,0,92.516c5.723-10.315,9.835-12.137,21.196-9.434
		c8.896,2.117,17.776,4.309,26.703,6.287c8.854,1.969,17.752,3.711,27.275,5.685c0-11.461-0.253-22.081,0.066-32.679
		c0.363-11.977,3.885-22.88,13.933-29.855c4.686-3.255,10.516-4.752,15.826-7.05c4.668,0,9.336,0,14.002,0
		c7.202,1.983,14.584,3.464,21.583,6.037c38.603,14.188,73.193,35.96,106.259,60.532c2.922,2.169,5.764,4.459,8.483,6.568
		c33.843-24.732,69.394-45.107,107.72-60.128c13.883-5.44,28.049-9.785,43.241-8.776c14.351,0.955,26.032,10.1,29.095,24.525
		c1.545,7.273,1.212,14.997,1.497,22.523c0.209,5.543,0.042,11.102,0.042,17.132c18.469-4.598,36.071-8.97,53.672-13.353
		C502.189,77.636,506.455,79.611,512,90.453z M75.045,383.24c0-87.218,0-152.868,0-238.599c-15.75-3.313-11.064-6.548-26.643-9.821
		c0,99.227,0,157.662,0,256.588c2.992-0.146,5.637-0.237,8.276-0.403c9.641-0.61-0.797-1.491,8.854-1.832
		c36.871-1.314,73.596-0.247,109.777,8.272c22.324,5.254,43.293,13.408,60.744,29.478c3.552,3.269,7.941,5.623,12.085,8.15
		c5.33,3.245,10.865,3.273,16.069-0.219c5.705-3.831,11.487-7.64,16.727-12.101c9.091-7.726,18.984-13.777,29.986-18.144
		c28.519-11.316,58.396-15.314,88.565-16.071c24.272-0.606,28.533,1.084,52.836,1.836c3.731,0.116,7.449,0.664,11.318,1.027
		c0-100.197,0-159.478,0-259.315c-15.814,3.933-11.18,7.774-26.998,11.708c0,86.5,0,152.448,0,238.745
		c-4.513,0-8.505-0.028-12.498,0.004c-28.342,0.253-56.596,1.724-84.557,6.94c-23.658,4.411-46.729,10.624-68.17,22.372
		c-5.168,2.832-8.902,5.659-7.708,12.296c0.028,0.153-0.403,0.389-1.05,0.975c-5.049-6.283-10.092-2.137-15.537,1.24
		c0-2.087-0.167-3.293,0.03-4.433c0.819-4.794-1.156-7.586-5.436-9.412c-9.669-4.118-18.985-9.257-28.868-12.671
		c-31.979-11.048-65.139-15.31-98.691-16.536C101.364,382.851,88.545,383.24,75.045,383.24z M102.988,333.792
		c45.458,1.282,89.964,6.173,132.669,23.618c0.118-2.039,0.263,36.769,0.263,35.44c0.01-83.034,0.032-166.06-0.12-249.091
		c-0.004-2.103-1.403-4.953-3.046-6.189c-22.623-17.036-46.177-32.595-71.188-45.647c-13.791-7.194-7.628-14.401-23.201-16.715
		c-13.759-2.049-15.304-0.532-15.306,13.961c-0.004,92.831-0.002,145.521-0.002,238.348
		C123.056,329.379,102.988,331.24,102.988,333.792z M408.753,333.658c0.108-1.758-19.819-2.934-19.819-4.11
		c0.008-94.515,0.014-148.89-0.004-243.405c-0.004-6.637-1.318-8.669-7.608-7.491c-11.044,2.077-2.22,4.327-12.621,8.501
		c-32.392,13.01-62.065,31.425-90.973,51.15c-1.423,0.969-2.615,3.504-2.617,5.312c-0.104,82.829-0.064,125.523-0.04,208.35
		c0,1.656,0,3.313,0,5.968C318.326,340.112,362.998,335.219,408.753,333.658z"/>
</g>
</svg>
